<svg xmlns="http://www.w3.org/2000/svg" width="14" height="15" viewBox="0 0 14 15">
    <path fill="#FFF" fill-rule="evenodd" d="M7.144 6.69h6.744c.075.415.112.812.112 1.19 0 1.346-.282 2.548-.847 3.605a6.112 6.112 0 0 1-2.413 2.48c-1.045.594-2.244.892-3.596.892-.973 0-1.9-.187-2.781-.563a7.144 7.144 0 0 1-2.28-1.52 7.144 7.144 0 0 1-1.52-2.28A7.023 7.023 0 0 1 0 7.713c0-.974.188-1.9.563-2.781.375-.881.882-1.64 1.52-2.28a7.144 7.144 0 0 1 2.28-1.52A7.023 7.023 0 0 1 7.144.569c1.86 0 3.458.623 4.79 1.87l-1.943 1.87C9.228 3.57 8.279 3.2 7.144 3.2c-.8 0-1.54.202-2.218.605-.68.403-1.217.95-1.614 1.642a4.471 4.471 0 0 0-.596 2.265c0 .819.199 1.574.596 2.265a4.456 4.456 0 0 0 1.614 1.642c.679.403 1.418.605 2.218.605.54 0 1.036-.075 1.489-.224.452-.149.824-.335 1.116-.558a4.04 4.04 0 0 0 .763-.763c.217-.285.376-.555.479-.809.102-.254.172-.496.209-.725H7.144V6.69z"/>
</svg>
