<svg xmlns="http://www.w3.org/2000/svg" width="15" height="14" viewBox="0 0 15 14">
    <g fill="#FFF" fill-rule="evenodd">
        <path d="M14.143 13.069H1.575v-1.02c.454-.158.778-.58.778-1.077s-.324-.92-.778-1.078V.835h12.568V13.07zM.773.054v9.842c-.451.16-.773.581-.773 1.076 0 .494.322.915.773 1.076v1.802h14.172V.054H.773z"/>
        <path d="M6.005 11C7.189 11 8 10.33 8 8.856V4H6.664v4.836c0 .711-.277.894-.716.894-.459 0-.65-.335-.86-.731L4 9.699c.315.712.936 1.301 2.005 1.301M10.094 11C11.187 11 12 10.307 12 9.042c0-1.175-.55-1.698-1.528-2.21l-.287-.15c-.493-.262-.707-.432-.707-.854 0-.342.214-.603.55-.603.33 0 .543.171.74.603l.895-.703C11.285 4.31 10.76 4 10.03 4c-1.027 0-1.684.803-1.684 1.858 0 1.145.55 1.687 1.38 2.119l.287.15c.526.282.838.453.838.935 0 .401-.304.693-.78.693-.567 0-.887-.362-1.134-.854L8 9.564C8.337 10.377 9.027 11 10.094 11"/>
    </g>
</svg>
