<svg xmlns="http://www.w3.org/2000/svg" xmlns:xlink="http://www.w3.org/1999/xlink" width="17" height="15" viewBox="0 0 17 15">
    <defs>
        <path id="a" d="M0 .1h16.9V15H0z"/>
    </defs>
    <g fill="none" fill-rule="evenodd">
        <g>
            <mask id="b" fill="#fff">
                <use xlink:href="#a"/>
            </mask>
            <path fill="#FFF" d="M13.476 9.573c-.093.03-.188.06-.284.088a16.708 16.708 0 0 0-.856-2.122c.337-.72.615-1.424.823-2.09.172.049.34.101.502.156 1.564.534 2.518 1.323 2.518 1.93 0 .648-1.03 1.488-2.703 2.038m-.613 3.573c-.1.538-.303.896-.554 1.04-.532.305-1.671-.092-2.9-1.14-.14-.12-.282-.248-.425-.383.477-.516.953-1.117 1.417-1.783.817-.072 1.59-.19 2.29-.35.034.138.064.273.09.406.17.846.194 1.612.082 2.21m-4.384-.995c-.343-.366-.684-.771-1.017-1.206a25.47 25.47 0 0 0 2.009-.004c-.33.443-.662.849-.992 1.21m-.825.808c-.656.568-1.313.971-1.892 1.174-.52.182-.935.187-1.185.044-.534-.304-.755-1.48-.453-3.058.036-.187.077-.372.124-.556.692.151 1.458.26 2.277.326.468.652.957 1.252 1.45 1.777-.104.1-.211.198-.321.293M3.74 9.7a9.22 9.22 0 0 1-.417-.13c-.824-.28-1.505-.642-1.971-1.038-.42-.356-.631-.709-.631-.996 0-.61.918-1.387 2.448-1.916.192-.066.386-.126.581-.181.212.681.49 1.394.824 2.115-.339.731-.62 1.455-.834 2.145M4.565.93c.566-.325 1.816.138 3.134 1.297.084.074.169.152.253.232-.49.523-.976 1.118-1.44 1.766a17.8 17.8 0 0 0-2.255.347 10.26 10.26 0 0 1-.116-.516c-.317-1.608-.106-2.822.424-3.126M8.46 2.97c.333.358.666.757.994 1.19a21.397 21.397 0 0 0-1.997 0c.328-.429.664-.828 1.003-1.19m3.459 3.742a25.15 25.15 0 0 0-1-1.71c.539.068 1.056.158 1.54.268-.145.462-.327.946-.54 1.442m-.484 2.543c.17-.292.334-.588.49-.887.227.51.417 1.004.568 1.473-.49.111-1.019.2-1.576.267.178-.28.351-.565.518-.853m-6.06-1.702A20.07 20.07 0 0 1 6.911 4.91a20.661 20.661 0 0 1 3.08 0c.287.42.559.85.815 1.289.257.44.5.888.728 1.343-.226.46-.468.913-.726 1.356-.256.44-.526.873-.81 1.296a23.855 23.855 0 0 1-3.078.006 20.285 20.285 0 0 1-1.548-2.647M4.99 6.71c-.21-.494-.39-.98-.537-1.449a16.39 16.39 0 0 1 1.533-.26 21.033 21.033 0 0 0-.996 1.71m.001 1.682A21.023 21.023 0 0 0 6 10.12a15.49 15.49 0 0 1-1.558-.248c.15-.477.334-.973.548-1.478m4.363-6.288C10.601 1.03 11.767.605 12.298.908c.566.324.786 1.628.43 3.339a9.308 9.308 0 0 1-.075.333c-.701-.16-1.463-.28-2.26-.354a16.828 16.828 0 0 0-1.429-1.767c.127-.12.257-.239.39-.353m4.542 2.823c-.18-.061-.361-.118-.544-.17.03-.122.058-.245.084-.368.412-1.981.143-3.577-.777-4.102-.882-.504-2.324.021-3.78 1.277-.143.124-.284.252-.42.383a10.12 10.12 0 0 0-.28-.257C6.651.35 5.121-.216 4.203.311c-.881.505-1.142 2.005-.771 3.883.037.186.078.37.125.554-.217.061-.426.126-.626.195C1.142 5.562 0 6.531 0 7.535c0 1.038 1.227 2.08 3.09 2.71.152.052.304.099.457.142-.05.198-.094.398-.132.598-.354 1.845-.078 3.31.8 3.812.908.518 2.431-.014 3.914-1.299.117-.101.235-.21.353-.322.148.142.3.28.457.413 1.436 1.225 2.855 1.72 3.732 1.216.907-.52 1.201-2.094.819-4.008a9.431 9.431 0 0 0-.101-.448c.106-.031.211-.064.314-.097C15.64 9.616 16.9 8.587 16.9 7.535c0-1.008-1.18-1.984-3.005-2.606" mask="url(#b)"/>
        </g>
        <path fill="#FFF" d="M8.5 9a1.5 1.5 0 1 0 0-3 1.5 1.5 0 0 0 0 3"/>
    </g>
</svg>
