<?xml version="1.0" encoding="utf-8"?>
<!-- Generator: Adobe Illustrator 20.0.0, SVG Export Plug-In . SVG Version: 6.00 Build 0)  -->
<svg version="1.1" id="Layer_1" xmlns="http://www.w3.org/2000/svg" xmlns:xlink="http://www.w3.org/1999/xlink" x="0px" y="0px"
	 viewBox="0 0 124.7 124.7" style="enable-background:new 0 0 124.7 124.7;" xml:space="preserve">
<path fill="#ffffff" d="M62.3,0C27.9,0,0,27.9,0,62.3c0,34.4,27.9,62.3,62.3,62.3c34.4,0,62.3-27.9,62.3-62.3C124.7,27.9,96.8,0,62.3,0z M97.9,75.1
	c-1.6,9.7-7.3,15.3-16.8,17.5c-6.2,1.4-12.4,1.7-18.6,1.5c-4.8-0.1-9.7,0.1-14.5-0.7c-14.9-2.3-21.2-9-22.1-24.1
	c-0.6-10,0.2-19.9,2.1-29.7c0.5-2.6,1.4-3.4,4.1-2.9c6.9,1.3,6.9,1.2,5.9,8c-1.3,8.7-2.1,17.5-0.6,26.3c1.2,7,4.4,10.4,11.4,11.4
	c9.1,1.3,18.3,1.4,27.4,0c6.7-1,9.8-4,11.1-10.8c1.8-10.1,0.8-20.1-1-30c-0.5-3,0-4.1,3.1-4.4c6.7-0.7,6.7-0.8,7.9,6.3
	C99.1,54.1,99.7,64.6,97.9,75.1z"/>
</svg>
