<svg xmlns="http://www.w3.org/2000/svg" width="48" height="46" viewBox="0 0 48 46">
    <defs>
        <linearGradient id="a" x1="-85.235%" y1="0%" y2="223.656%">
            <stop offset="0%" stop-color="#B70000"/>
            <stop offset="100%" stop-color="#7B0000"/>
        </linearGradient>
    </defs>
    <g fill="url(#a)" fill-rule="evenodd" transform="translate(-18 -21)">
        <path d="M56.051 43.044a1.38 1.38 0 0 1-1.375-1.383c0-.766.617-1.386 1.375-1.386.762 0 1.375.62 1.375 1.386 0 .763-.613 1.383-1.375 1.383m-8.724-4.013c4.257 4.76 5.729 11.052 4.593 16.91 2.275-6.513 7.479-11.634 14.039-13.732-5.122-4.893-12.507-5.94-18.632-3.178"/>
        <path d="M48.837 57.314c.132-.408.277-.836.371-1.196.167-.63.296-1.19.369-1.58.081-.436.113-.696.113-.696l-.054-.006c.479-4.65-.865-9.46-4.25-13.198l-.356-.392L28.318 21.8c-6.944 6.368-7.444 17.188-1.114 24.173l2.608 2.88c.006.01 2.895 3.241 0 6.153L18.017 66.872s3.665-2.447 12.09-1.538c0-.01-.009-.038-.009-.038s14.646 2.057 18.74-7.982"/>
    </g>
</svg>
