<svg xmlns="http://www.w3.org/2000/svg" width="116" height="26" viewBox="0 0 116 26">
    <path fill="#FEFEFE"
          d="M11.717 23.56h-.466c-1.666 0-2.465-.401-2.465-2.384V2.866h1.365c5.53 0 8.228 4.436 8.228 10.65 0 6.249-2.698 10.045-6.662 10.045m-.565-22.138H.593v.007a.632.632 0 0 0 0 1.261V2.7c2.264.269 2.532.504 2.532 2.318v16.394c0 1.814-.268 2.049-2.532 2.318v1.277h11.259c7.427 0 12.488-4.469 12.488-12.162 0-6.383-4.162-11.421-13.188-11.421M34.412 21.479c-.734.503-1.265.807-2.031.807-1.732 0-2.465-1.244-2.465-2.992 0-1.914.832-2.585 2.13-3.124l2.366-.94v6.249zm5.185-.504v-8.903c0-4.165-2.563-5.678-6.995-5.678-3.028 0-5.516.872-6.454 2.656a2.784 2.784 0 0 0-.525 1.625c0 1.543 1.24 2.794 2.77 2.794.827 0 1.561-.373 2.068-.954l.043-.005-.007-.037c.41-.488.666-1.11.666-1.798a2.79 2.79 0 0 0-.716-1.858c.294-.768.866-1.247 1.789-1.247 1.532 0 2.065 1.21 2.065 2.956l.11 3.393-5.162 1.847c-2.43.908-4.462 2.085-4.462 5.007 0 2.788 1.865 4.435 4.63 4.435 2.398 0 4.064-1.412 5.095-2.823.434 1.814 1.588 2.621 3.453 2.621h3.908v-1.21c-2.338-.01-2.276-2.821-2.276-2.821zM78.95 8.276c1.333.167 2 .336 2 1.107 0 .236-.066.607-.202.976l-3.23 8.264-2.998-8.264c-.1-.403-.166-.672-.166-.941 0-.84.7-.975 2.098-1.142v-1.21h-9.125v1.21c.999.269 1.331.57 1.565 1.31l1.098 2.89-2.663 6.415-3.398-8.532c-.167-.403-.234-.74-.234-1.042 0-.638.567-.874 1.734-1.04V7.065h-9.294v1.21c1.165.336 1.365.57 1.698 1.31l6.796 15.622h1.665l4.53-10.65 3.964 10.65h1.697l6.43-15.622c.3-.74.532-.974 1.697-1.31v-1.21H78.95v1.21zM89.866 5.744c1.799 0 2.997-1.31 2.997-2.856C92.863 1.343 91.665 0 89.866 0c-1.8 0-2.966 1.343-2.966 2.888s1.167 2.856 2.966 2.856M94.529 23.796c-1.433-.101-1.966-.268-1.966-1.377V6.73h-.899l-6.395 1.88v.773l1.932 1.177v11.858c0 1.109-.532 1.276-1.964 1.377v1.21h9.736v-1.21h-.444z"/>
    <path fill="#FEFEFE"
          d="M113.359 22.418V12.207c0-3.663-1.733-5.475-4.898-5.475-2.93 0-4.829 1.679-6.16 3.324l.132-3.324h-.997l-6.43 1.88v.772l1.931 1.176v11.858c0 1.11-.531 1.277-1.965 1.377v1.211h9.227v-1.21c-1.433-.1-1.899-.268-1.899-1.378V11.03c.933-.603 2.066-1.073 3.298-1.073 1.764 0 2.398.905 2.398 2.652v9.81c0 1.109-.466 1.276-1.899 1.376v1.211h9.226v-1.21c-1.432-.1-1.964-.268-1.964-1.378M41.906 8.629a.442.442 0 0 0-.222.38c0 .19.122.352.29.416l-.068-.041v-.755zM41.95 8.599l.038-.011c-.012.004-.026.005-.038.01"/>
    <path fill="#FEFEFE"
          d="M54.95 7.08c-.053.002-.11.002-.163.005-3.185.197-5.083 2.11-5.597 3.835l.144-4.19h-1l-6.346 1.858-.038.01-.044.014v.772l.067.041 1.866 1.135V22.42c0 1.109-.534 1.276-1.965 1.376v1.21H51.93v-1.21c-1.998-.2-2.731-.368-2.731-1.78v-9.07c1.526-1.415 3.262-1.767 5.63-1.59l.009-.007c.015.001.029.009.045.009.246 0 .444-.2.444-.449V7.515a.442.442 0 0 0-.378-.435"/>
</svg>
